<?xml version="1.0" encoding="utf-8"?>
<!-- Generator: Adobe Illustrator 23.0.0, SVG Export Plug-In . SVG Version: 6.00 Build 0)  -->
<svg version="1.1" id="图层_1" xmlns="http://www.w3.org/2000/svg" xmlns:xlink="http://www.w3.org/1999/xlink" x="0px" y="0px"
	 width="128px" height="128px" viewBox="0 0 128 128" style="enable-background:new 0 0 128 128;" xml:space="preserve">
<style type="text/css">
	.st0{fill:#FFFFFF;}
</style>
<path class="st0" d="M84.2,79.7l10.8,10.8c1.8-0.8,3.7-1.1,5.6-0.8c5.3-7.5,8.1-16.5,8.1-25.7c0-9.6-3-18.4-8.1-25.7
	c-1.7-0.2-3.3-0.8-4.8-1.7L84.2,48.3c3.4,4.3,5.4,9.8,5.4,15.7S87.6,75.4,84.2,79.7z M79.7,84.2c-11.2,8.7-27.3,6.6-35.9-4.5
	c-2.1-2.8-3.7-5.9-4.6-9.3H25.1c-0.8,2.2-2.3,4-4.4,5.2c6.4,23.9,31,38.1,54.9,31.7c5.1-1.4,9.8-3.6,14.1-6.6
	c-0.3-1.9,0-3.9,0.8-5.6L79.7,84.2z M106.3,92.8c3.5,4,3.2,10-0.8,13.6c-3.6,3.3-9.2,3.3-12.8,0c-23.4,15.9-55.3,9.8-71.2-13.6
	c-3.3-4.9-5.8-10.4-7.3-16.1c-5.2-0.9-8.7-5.9-7.8-11.1c0.6-3.6,3.2-6.5,6.6-7.5C16.4,29.9,41.9,9.8,70,13.1
	c7.4,0.9,14.4,3.3,20.8,7.2c2.9-6.4,10.5-9.3,16.9-6.4c6.4,2.9,9.3,10.5,6.4,16.9c-1.3,2.8-3.5,5.1-6.4,6.4c4.9,8,7.5,17.3,7.5,26.7
	C115.2,74.7,111.9,84.6,106.3,92.8z M79.7,43.8l11.7-11.7c-0.9-1.5-1.4-3.1-1.7-4.8c-20.3-14.2-48.2-9.3-62.4,11
	c-4.2,5.9-6.8,12.8-7.7,20c2.6,1,4.6,3.1,5.5,5.7h13.3c0-14.1,11.5-25.6,25.6-25.6C69.7,38.4,75.2,40.3,79.7,43.8z"/>
</svg>
