<?xml version="1.0" encoding="utf-8"?>
<!-- Generator: Adobe Illustrator 23.0.0, SVG Export Plug-In . SVG Version: 6.00 Build 0)  -->
<svg version="1.1" id="图层_1" xmlns="http://www.w3.org/2000/svg" xmlns:xlink="http://www.w3.org/1999/xlink" x="0px" y="0px"
	 width="128px" height="128px" viewBox="0 0 128 128" style="enable-background:new 0 0 128 128;" xml:space="preserve">
<style type="text/css">
	.st0{fill:#FFFFFF;}
</style>
<path class="st0" d="M30.6,64c0,18.5,15,33.4,33.4,33.4s33.4-15,33.4-33.4c0,0,0,0,0,0c0-18.5-15-33.4-33.4-33.4S30.6,45.5,30.6,64
	C30.6,64,30.6,64,30.6,64z"/>
<path class="st0" d="M17.4,48.7L0.2,43.1C6.9,22.8,22.8,6.9,43.1,0.2l5.6,17.2C33.9,22.3,22.3,33.9,17.4,48.7z M110.6,48.7
	c-4.9-14.8-16.5-26.5-31.3-31.3l5.6-17.2c20.3,6.7,36.2,22.6,42.9,42.9L110.6,48.7z M43.1,127.8c-20.3-6.7-36.2-22.6-42.9-42.9
	l17.2-5.6c4.9,14.8,16.5,26.5,31.3,31.3L43.1,127.8z M84.9,127.8l-5.6-17.2c14.8-4.9,26.5-16.5,31.3-31.3l17.2,5.6
	C121.1,105.2,105.2,121.1,84.9,127.8z"/>
</svg>
