<?xml version="1.0" encoding="utf-8"?>
<!-- Generator: Adobe Illustrator 23.0.0, SVG Export Plug-In . SVG Version: 6.00 Build 0)  -->
<svg version="1.1" id="图层_1" xmlns="http://www.w3.org/2000/svg" xmlns:xlink="http://www.w3.org/1999/xlink" x="0px" y="0px"
	 width="128px" height="128px" viewBox="0 0 128 128" style="enable-background:new 0 0 128 128;" xml:space="preserve">
<style type="text/css">
	.st0{fill:#FFFFFF;}
</style>
<path class="st0" d="M60.4,56.4c-7.5-1.9-12-9.5-10.3-17l-26-15c-0.2,0.2-0.5,0.4-0.7,0.7l35.2,75.5c0.6-0.2,1.2-0.4,1.8-0.6V56.4z
	 M53.4,33.2c2.6-2.9,6.4-4.7,10.6-4.7c4.2,0,7.9,1.8,10.5,4.6l25.6-14.8c0-0.2-0.1-0.3-0.1-0.5H28c-0.1,0.2-0.1,0.4-0.2,0.6
	C27.8,18.4,53.4,33.2,53.4,33.2z M77.8,39.3c1.8,7.5-2.8,15.2-10.3,17.1V100c0.7,0.2,1.4,0.4,2,0.7l35.2-75.5
	c-0.3-0.3-0.6-0.6-1-0.9L77.8,39.3L77.8,39.3z M28,10.7h72c2-7.6,9.7-12.2,17.3-10.2c7.6,2,12.2,9.7,10.2,17.3
	c-1.9,7.2-9,11.8-16.3,10.4l-35.9,76.9c4.8,6.2,3.6,15.2-2.7,19.9c-6.2,4.8-15.2,3.6-19.9-2.7c-3.9-5.1-3.9-12.3,0.1-17.4L17,28.2
	C9.3,29.7,1.8,24.7,0.3,17S3.8,1.8,11.5,0.3C18.9-1.2,26.1,3.4,28,10.7z"/>
</svg>
