<?xml version="1.0" encoding="utf-8"?>
<!-- Generator: Adobe Illustrator 23.0.0, SVG Export Plug-In . SVG Version: 6.00 Build 0)  -->
<svg version="1.1" id="图层_1" xmlns="http://www.w3.org/2000/svg" xmlns:xlink="http://www.w3.org/1999/xlink" x="0px" y="0px"
	 width="128px" height="128px" viewBox="0 0 128 128" style="enable-background:new 0 0 128 128;" xml:space="preserve">
<style type="text/css">
	.st0{fill:#FFFFFF;}
</style>
<path class="st0" d="M113.2,3.4H15.1c-8.3,0-14.9,6.7-14.9,14.9s6.7,15,14.9,15h98.1c8.3,0,15-6.7,15-15S121.4,3.4,113.2,3.4z
	 M113.2,23.3H82.5v-10h30.6c2.8,0,5,2.2,5,5S115.9,23.3,113.2,23.3z M113.2,49.4H15.1c-8.3,0-14.9,6.7-14.9,15s6.7,14.9,14.9,14.9
	h98.1c8.3,0,15-6.7,15-14.9S121.4,49.4,113.2,49.4z M113.2,69.4H62.6v-10h50.6c2.8,0,5,2.2,5,5C118.2,67.1,115.9,69.4,113.2,69.4z
	 M113.2,95.3H15.1c-8.3,0-14.9,6.7-14.9,14.9s6.7,14.9,14.9,14.9h98.1c8.3,0,15-6.7,15-14.9C128.1,102.1,121.4,95.3,113.2,95.3z
	 M113.2,115.3H92.5v-10h20.7c2.8,0,5,2.2,5,5C118.2,113.1,115.9,115.3,113.2,115.3z"/>
</svg>
